<svg width="20" height="20" viewBox="0 0 20 20" fill="currentColor" xmlns="http://www.w3.org/2000/svg">
<path d="M17.6 8.23335L11.7667 2.40002C11.2898 1.94751 10.6574 1.69525 10 1.69525C9.3426 1.69525 8.71025 1.94751 8.23335 2.40002L2.40002 8.23335C1.93185 8.7021 1.66888 9.33752 1.66888 10C1.66888 10.6625 1.93185 11.2979 2.40002 11.7667L8.23335 17.6C8.7021 18.0682 9.33751 18.3312 10 18.3312C10.6625 18.3312 11.2979 18.0682 11.7667 17.6L17.6 11.7667C18.0682 11.2979 18.3312 10.6625 18.3312 10C18.3312 9.33752 18.0682 8.7021 17.6 8.23335ZM16.425 10.5917L10.5917 16.425C10.5142 16.5031 10.422 16.5651 10.3205 16.6074C10.2189 16.6497 10.11 16.6715 10 16.6715C9.89001 16.6715 9.78109 16.6497 9.67954 16.6074C9.57799 16.5651 9.48582 16.5031 9.40835 16.425L3.57502 10.5917C3.49691 10.5142 3.43492 10.422 3.39261 10.3205C3.3503 10.219 3.32852 10.11 3.32852 10C3.32852 9.89001 3.3503 9.78109 3.39261 9.67954C3.43492 9.57799 3.49691 9.48582 3.57502 9.40835L9.40835 3.57502C9.48582 3.49691 9.57799 3.43492 9.67954 3.39261C9.78109 3.3503 9.89001 3.32852 10 3.32852C10.11 3.32852 10.2189 3.3503 10.3205 3.39261C10.422 3.43492 10.5142 3.49691 10.5917 3.57502L16.425 9.40835C16.5031 9.48582 16.5651 9.57799 16.6074 9.67954C16.6497 9.78109 16.6715 9.89001 16.6715 10C16.6715 10.11 16.6497 10.219 16.6074 10.3205C16.5651 10.422 16.5031 10.5142 16.425 10.5917ZM11.8417 7.74169C11.6848 7.58477 11.4719 7.49661 11.25 7.49661C11.0281 7.49661 10.8153 7.58477 10.6583 7.74169C10.5014 7.89861 10.4133 8.11143 10.4133 8.33335C10.4133 8.55527 10.5014 8.7681 10.6583 8.92502L10.9083 9.16669H7.91668C7.69567 9.16669 7.48371 9.25448 7.32743 9.41076C7.17115 9.56705 7.08335 9.77901 7.08335 10V11.6667C7.08335 11.8877 7.17115 12.0997 7.32743 12.2559C7.48371 12.4122 7.69567 12.5 7.91668 12.5C8.1377 12.5 8.34966 12.4122 8.50594 12.2559C8.66222 12.0997 8.75002 11.8877 8.75002 11.6667V10.8334H10.9083L10.6583 11.075C10.5802 11.1525 10.5182 11.2447 10.4759 11.3462C10.4336 11.4478 10.4119 11.5567 10.4119 11.6667C10.4119 11.7767 10.4336 11.8856 10.4759 11.9872C10.5182 12.0887 10.5802 12.1809 10.6583 12.2584C10.7358 12.3365 10.828 12.3985 10.9295 12.4408C11.0311 12.4831 11.14 12.5049 11.25 12.5049C11.36 12.5049 11.4689 12.4831 11.5705 12.4408C11.672 12.3985 11.7642 12.3365 11.8417 12.2584L13.5083 10.5917C13.5865 10.5142 13.6485 10.422 13.6908 10.3205C13.7331 10.219 13.7548 10.11 13.7548 10C13.7548 9.89001 13.7331 9.78109 13.6908 9.67954C13.6485 9.57799 13.5865 9.48582 13.5083 9.40835L11.8417 7.74169Z" fill="currentColor"/>
</svg>
