<svg width="103" height="103" viewBox="0 0 103 103" fill="currentColor" xmlns="http://www.w3.org/2000/svg">
<path d="M72.9583 38.625V30.0416C72.9583 24.3505 70.6975 18.8925 66.6733 14.8683C62.6491 10.8441 57.1911 8.58331 51.5 8.58331C45.8089 8.58331 40.3508 10.8441 36.3266 14.8683C32.3024 18.8925 30.0416 24.3505 30.0416 30.0416V38.625C26.627 38.625 23.3522 39.9814 20.9376 42.396C18.5231 44.8105 17.1666 48.0853 17.1666 51.5V81.5416C17.1666 84.9563 18.5231 88.2311 20.9376 90.6456C23.3522 93.0602 26.627 94.4166 30.0416 94.4166H72.9583C76.373 94.4166 79.6478 93.0602 82.0623 90.6456C84.4768 88.2311 85.8333 84.9563 85.8333 81.5416V51.5C85.8333 48.0853 84.4768 44.8105 82.0623 42.396C79.6478 39.9814 76.373 38.625 72.9583 38.625ZM38.625 30.0416C38.625 26.627 39.9814 23.3522 42.396 20.9376C44.8105 18.5231 48.0853 17.1666 51.5 17.1666C54.9146 17.1666 58.1894 18.5231 60.604 20.9376C63.0185 23.3522 64.375 26.627 64.375 30.0416V38.625H38.625V30.0416ZM77.25 81.5416C77.25 82.6799 76.7978 83.7715 75.993 84.5763C75.1881 85.3812 74.0965 85.8333 72.9583 85.8333H30.0416C28.9034 85.8333 27.8118 85.3812 27.007 84.5763C26.2021 83.7715 25.75 82.6799 25.75 81.5416V51.5C25.75 50.3618 26.2021 49.2702 27.007 48.4653C27.8118 47.6605 28.9034 47.2083 30.0416 47.2083H72.9583C74.0965 47.2083 75.1881 47.6605 75.993 48.4653C76.7978 49.2702 77.25 50.3618 77.25 51.5V81.5416Z" fill="currentColor"/>
</svg>
