<svg width="151" height="43" viewBox="0 0 151 43" fill="currentColor" xmlns="http://www.w3.org/2000/svg">
<path d="M27.6872 27.4327C27.6872 30.3794 27.2829 32.9757 26.4744 35.2217C25.6838 37.4677 24.453 39.2196 22.782 40.4773C21.1109 41.7171 18.9638 42.337 16.3405 42.337C14.8132 42.337 13.4836 42.0316 12.3516 41.4206C11.2196 40.8097 10.2404 39.9563 9.41386 38.8602L9.00958 41.798H0.3311V0.399994H10.0338V14.7923C10.8243 13.9478 11.7317 13.2919 12.7559 12.8248C13.7801 12.3396 14.957 12.0971 16.2866 12.0971C18.9279 12.0971 21.084 12.7439 22.755 14.0376C24.444 15.3313 25.6838 17.0921 26.4744 19.3202C27.2829 21.5302 27.6872 24.0457 27.6872 26.8667V27.4327ZM17.9845 26.8667C17.9845 25.6089 17.8857 24.459 17.6881 23.4168C17.4904 22.3567 17.0951 21.5122 16.5022 20.8834C15.9272 20.2365 15.0378 19.9131 13.834 19.9131C12.0012 19.9131 10.7345 20.524 10.0338 21.7458V32.7422C10.7525 33.964 12.0372 34.5749 13.8879 34.5749C15.1276 34.5749 16.035 34.2874 16.61 33.7124C17.185 33.1195 17.5533 32.284 17.715 31.2059C17.8947 30.1278 17.9845 28.8701 17.9845 27.4327V26.8667ZM5.42499 27.0014V27.3249C5.42499 27.2709 5.43398 27.217 5.45194 27.1631L5.42499 27.0014Z" fill="currentColor"/>
<path fill-rule="evenodd" clip-rule="evenodd" d="M54.8919 32.9114L52.0114 35.0981L36.5407 23.7097L33.2255 26.3071L31.1472 34.3029V3.05176e-05H40.8768V21.3189L41.5776 20.3756L47.9112 12.2631H59.5275L49.5553 24.3106L54.8919 32.9114ZM88.2042 33.5543L74.2826 39.0614L61.532 32.4647C61.5073 32.0434 61.495 31.6073 61.495 31.1563V12.2631H71.1976V31.2102C71.1976 32.1266 71.4671 32.8453 72.0062 33.3664C72.5632 33.8874 73.3897 34.148 74.4857 34.148C75.4919 34.148 76.3095 33.9863 76.9383 33.6628C77.5852 33.3394 78.0973 32.8992 78.4746 32.3422V12.2631H88.2042V33.5543ZM114.606 40.6563L93.0016 32.9439V0.0269823H102.704V14.4192C103.495 13.5748 104.402 12.9189 105.426 12.4518C106.451 11.9666 107.627 11.7241 108.957 11.7241C111.598 11.7241 113.755 12.3709 115.426 13.6646C117.115 14.9583 118.354 16.7191 119.145 18.9472C119.953 21.1572 120.358 23.6727 120.358 26.4937V27.0597C120.358 30.0064 119.953 32.6027 119.145 34.8487C118.354 37.0947 117.123 38.8466 115.452 40.1043C115.183 40.3045 114.901 40.4885 114.606 40.6563ZM110.655 26.4937C110.655 25.2359 110.556 24.086 110.359 23.0438C110.161 21.9837 109.766 21.1392 109.173 20.5104C108.598 19.8635 107.708 19.5401 106.504 19.5401C104.672 19.5401 103.405 20.151 102.704 21.3728V32.3692C103.423 33.591 104.708 34.2019 106.558 34.2019C107.798 34.2019 108.706 33.9144 109.281 33.3394C109.855 32.7465 110.224 31.911 110.386 30.8329C110.565 29.7548 110.655 28.4971 110.655 27.0597V26.4937ZM98.0955 26.9518C98.0955 26.8979 98.1045 26.844 98.1225 26.7901L98.0955 26.6284V26.9518ZM130.222 39.9965C132.504 41.3082 135.262 41.964 138.496 41.964C141.335 41.964 143.752 41.4339 145.746 40.3738C147.759 39.3137 149.214 38.1548 150.113 36.8971L145.746 31.318C144.92 32.3602 143.905 33.0879 142.701 33.5011C141.515 33.9144 140.329 34.121 139.143 34.121C137.634 34.121 136.376 33.7796 135.37 33.0969C134.364 32.3961 133.672 31.4258 133.295 30.1861H150.894V26.1163C150.894 21.6423 149.708 18.1296 147.336 15.5782C144.983 13.0088 141.695 11.7241 137.472 11.7241C134.292 11.7241 131.651 12.4068 129.548 13.7724C127.446 15.12 125.874 16.9437 124.832 19.2436C123.79 21.5255 123.269 24.059 123.269 26.844V27.8413C123.269 30.3388 123.861 32.6656 125.047 34.8218C126.233 36.9599 127.958 38.6849 130.222 39.9965ZM134.373 20.8068C135.002 19.9623 136.008 19.5401 137.391 19.5401C138.703 19.5401 139.709 19.8276 140.41 20.4026C141.111 20.9775 141.443 21.9029 141.407 23.1786V23.9602H133.16C133.339 22.7024 133.744 21.6513 134.373 20.8068Z" fill="currentColor"/>
</svg>
