<svg width="14" height="15" viewBox="0 0 14 15" fill="currentColor" xmlns="http://www.w3.org/2000/svg">
<path d="M7.58323 4.58329H5.83323C5.67852 4.58329 5.53015 4.64475 5.42075 4.75415C5.31136 4.86354 5.2499 5.01192 5.2499 5.16663V9.83329C5.2499 9.988 5.31136 10.1364 5.42075 10.2458C5.53015 10.3552 5.67852 10.4166 5.83323 10.4166C5.98794 10.4166 6.13632 10.3552 6.24571 10.2458C6.35511 10.1364 6.41657 9.988 6.41657 9.83329V8.66663H7.58323C8.04736 8.66663 8.49248 8.48225 8.82067 8.15406C9.14886 7.82587 9.33323 7.38075 9.33323 6.91663V6.33329C9.33323 5.86916 9.14886 5.42404 8.82067 5.09586C8.49248 4.76767 8.04736 4.58329 7.58323 4.58329ZM8.16657 6.91663C8.16657 7.07134 8.10511 7.21971 7.99571 7.3291C7.88632 7.4385 7.73794 7.49996 7.58323 7.49996H6.41657V5.74996H7.58323C7.73794 5.74996 7.88632 5.81142 7.99571 5.92081C8.10511 6.03021 8.16657 6.17858 8.16657 6.33329V6.91663ZM6.9999 1.66663C5.84618 1.66663 4.71836 2.00875 3.75907 2.64972C2.79979 3.29069 2.05211 4.20174 1.6106 5.26764C1.16909 6.33354 1.05357 7.50643 1.27865 8.63799C1.50373 9.76954 2.05931 10.8089 2.87511 11.6247C3.69092 12.4406 4.73032 12.9961 5.86187 13.2212C6.99343 13.4463 8.16632 13.3308 9.23222 12.8893C10.2981 12.4477 11.2092 11.7001 11.8501 10.7408C12.4911 9.7815 12.8332 8.65368 12.8332 7.49996C12.8332 6.73391 12.6824 5.97537 12.3892 5.26764C12.096 4.55991 11.6664 3.91684 11.1247 3.37517C10.583 2.83349 9.93995 2.40381 9.23222 2.11066C8.52449 1.81751 7.76594 1.66663 6.9999 1.66663ZM6.9999 12.1666C6.07692 12.1666 5.17467 11.8929 4.40724 11.3801C3.63981 10.8674 3.04167 10.1385 2.68846 9.28581C2.33525 8.43309 2.24284 7.49478 2.4229 6.58954C2.60297 5.68429 3.04742 4.85277 3.70007 4.20013C4.35271 3.54748 5.18423 3.10303 6.08948 2.92296C6.99472 2.7429 7.93303 2.83531 8.78576 3.18852C9.63848 3.54173 10.3673 4.13987 10.8801 4.9073C11.3929 5.67473 11.6666 6.57698 11.6666 7.49996C11.6666 8.73764 11.1749 9.92462 10.2997 10.7998C9.42456 11.675 8.23758 12.1666 6.9999 12.1666Z" fill="currentColor"/>
</svg>
