<svg width="20" height="20" viewBox="0 0 20 20" fill="currentColor" xmlns="http://www.w3.org/2000/svg">
<path d="M10.8334 5.83333H8.33342C8.1124 5.83333 7.90044 5.92113 7.74416 6.07741C7.58788 6.23369 7.50008 6.44565 7.50008 6.66667V13.3333C7.50008 13.5543 7.58788 13.7663 7.74416 13.9226C7.90044 14.0789 8.1124 14.1667 8.33342 14.1667C8.55443 14.1667 8.76639 14.0789 8.92267 13.9226C9.07895 13.7663 9.16675 13.5543 9.16675 13.3333V11.6667H10.8334C11.4965 11.6667 12.1323 11.4033 12.6012 10.9344C13.07 10.4656 13.3334 9.82971 13.3334 9.16667V8.33333C13.3334 7.67029 13.07 7.03441 12.6012 6.56557C12.1323 6.09673 11.4965 5.83333 10.8334 5.83333ZM11.6668 9.16667C11.6668 9.38768 11.579 9.59964 11.4227 9.75592C11.2664 9.9122 11.0544 10 10.8334 10H9.16675V7.5H10.8334C11.0544 7.5 11.2664 7.5878 11.4227 7.74408C11.579 7.90036 11.6668 8.11232 11.6668 8.33333V9.16667ZM10.0001 1.66667C8.35191 1.66667 6.74074 2.15541 5.37033 3.07109C3.99992 3.98677 2.93182 5.28825 2.30109 6.81097C1.67036 8.33369 1.50533 10.0092 1.82687 11.6258C2.14842 13.2423 2.94209 14.7271 4.10753 15.8926C5.27297 17.058 6.75782 17.8517 8.37433 18.1732C9.99084 18.4948 11.6664 18.3297 13.1891 17.699C14.7118 17.0683 16.0133 16.0002 16.929 14.6298C17.8447 13.2593 18.3334 11.6482 18.3334 10C18.3334 8.90565 18.1179 7.82202 17.6991 6.81097C17.2803 5.79992 16.6665 4.88127 15.8926 4.10744C15.1188 3.33362 14.2002 2.71979 13.1891 2.301C12.1781 1.88222 11.0944 1.66667 10.0001 1.66667ZM10.0001 16.6667C8.68154 16.6667 7.39261 16.2757 6.29628 15.5431C5.19996 14.8106 4.34547 13.7694 3.84089 12.5512C3.3363 11.333 3.20428 9.99261 3.46152 8.6994C3.71875 7.40619 4.35369 6.21831 5.28604 5.28596C6.21839 4.35361 7.40628 3.71867 8.69948 3.46143C9.99269 3.2042 11.3331 3.33622 12.5513 3.8408C13.7695 4.34539 14.8107 5.19987 15.5432 6.2962C16.2758 7.39253 16.6668 8.68146 16.6668 10C16.6668 11.7681 15.9644 13.4638 14.7141 14.714C13.4639 15.9643 11.7682 16.6667 10.0001 16.6667Z" fill="currentColor"/>
</svg>
