<svg width="18" height="18" viewBox="0 0 18 18" fill="currentColor" xmlns="http://www.w3.org/2000/svg">
<path d="M8.99996 4.83334C8.77895 4.83334 8.56699 4.92114 8.41071 5.07742C8.25443 5.2337 8.16663 5.44566 8.16663 5.66667V9.00001C8.16663 9.22102 8.25443 9.43298 8.41071 9.58926C8.56699 9.74554 8.77895 9.83334 8.99996 9.83334C9.22098 9.83334 9.43294 9.74554 9.58922 9.58926C9.7455 9.43298 9.8333 9.22102 9.8333 9.00001V5.66667C9.8333 5.44566 9.7455 5.2337 9.58922 5.07742C9.43294 4.92114 9.22098 4.83334 8.99996 4.83334ZM9.76663 12.0167C9.74839 11.9636 9.72317 11.9131 9.69163 11.8667L9.59163 11.7417C9.47444 11.626 9.32563 11.5477 9.16397 11.5166C9.00232 11.4854 8.83506 11.5029 8.6833 11.5667C8.58231 11.6089 8.4893 11.6681 8.4083 11.7417C8.33106 11.8195 8.26996 11.9119 8.22849 12.0134C8.18702 12.1149 8.166 12.2237 8.16663 12.3333C8.16795 12.4422 8.1906 12.5498 8.2333 12.65C8.27072 12.7534 8.33044 12.8473 8.4082 12.9251C8.48597 13.0029 8.57988 13.0626 8.6833 13.1C8.78305 13.1441 8.8909 13.1669 8.99996 13.1669C9.10902 13.1669 9.21688 13.1441 9.31663 13.1C9.42004 13.0626 9.51396 13.0029 9.59173 12.9251C9.66949 12.8473 9.7292 12.7534 9.76663 12.65C9.80933 12.5498 9.83198 12.4422 9.8333 12.3333C9.83739 12.2779 9.83739 12.2222 9.8333 12.1667C9.81895 12.1135 9.79646 12.0629 9.76663 12.0167ZM8.99996 0.666672C7.35179 0.666672 5.74062 1.15541 4.37021 2.07109C2.9998 2.98677 1.9317 4.28826 1.30097 5.81098C0.670237 7.33369 0.505209 9.00925 0.826752 10.6258C1.1483 12.2423 1.94197 13.7271 3.10741 14.8926C4.27284 16.058 5.7577 16.8517 7.37421 17.1732C8.99072 17.4948 10.6663 17.3297 12.189 16.699C13.7117 16.0683 15.0132 15.0002 15.9289 13.6298C16.8446 12.2593 17.3333 10.6482 17.3333 9.00001C17.3333 7.90566 17.1177 6.82202 16.699 5.81098C16.2802 4.79993 15.6663 3.88127 14.8925 3.10745C14.1187 2.33363 13.2 1.7198 12.189 1.30101C11.1779 0.88222 10.0943 0.666672 8.99996 0.666672ZM8.99996 15.6667C7.68142 15.6667 6.39249 15.2757 5.29616 14.5431C4.19983 13.8106 3.34535 12.7694 2.84077 11.5512C2.33618 10.3331 2.20416 8.99261 2.46139 7.6994C2.71863 6.4062 3.35357 5.21831 4.28592 4.28596C5.21827 3.35361 6.40615 2.71867 7.69936 2.46144C8.99257 2.2042 10.333 2.33622 11.5512 2.84081C12.7694 3.34539 13.8105 4.19988 14.5431 5.2962C15.2756 6.39253 15.6666 7.68146 15.6666 9.00001C15.6666 10.7681 14.9643 12.4638 13.714 13.7141C12.4638 14.9643 10.7681 15.6667 8.99996 15.6667Z" fill="currentColor"/>
</svg>
