<svg width="16" height="16" viewBox="0 0 16 16" fill="currentColor" xmlns="http://www.w3.org/2000/svg">
<path d="M12.2 5.72666L12.8066 5.12666C12.9322 5.00112 13.0027 4.83086 13.0027 4.65332C13.0027 4.47579 12.9322 4.30553 12.8066 4.17999C12.6811 4.05445 12.5108 3.98393 12.3333 3.98393C12.1558 3.98393 11.9855 4.05445 11.86 4.17999L11.26 4.78666C10.3257 4.06389 9.17787 3.67175 7.99664 3.67175C6.81541 3.67175 5.66761 4.06389 4.73331 4.78666L4.12664 4.17332C4.00022 4.04779 3.82911 3.97761 3.65095 3.97824C3.47279 3.97886 3.30218 4.05024 3.17664 4.17666C3.05111 4.30308 2.98093 4.47419 2.98156 4.65235C2.98218 4.83051 3.05356 5.00112 3.17998 5.12666L3.79331 5.73332C3.06199 6.66502 2.66517 7.81555 2.66664 8.99999C2.66447 9.85027 2.86562 10.6888 3.25333 11.4455C3.64103 12.2022 4.20405 12.8553 4.89544 13.3503C5.58682 13.8452 6.38652 14.1677 7.22785 14.2908C8.06918 14.4139 8.92774 14.334 9.73194 14.0579C10.5361 13.7818 11.2627 13.3174 11.8509 12.7034C12.4392 12.0895 12.8721 11.3438 13.1136 10.5285C13.3551 9.71324 13.3982 8.85205 13.2393 8.01675C13.0804 7.18145 12.724 6.39626 12.2 5.72666ZM7.99998 13C7.20885 13 6.43549 12.7654 5.7777 12.3259C5.1199 11.8863 4.60721 11.2616 4.30446 10.5307C4.00171 9.79982 3.92249 8.99555 4.07684 8.21963C4.23118 7.4437 4.61214 6.73097 5.17155 6.17156C5.73096 5.61215 6.44369 5.23119 7.21962 5.07685C7.99554 4.92251 8.79981 5.00172 9.53071 5.30447C10.2616 5.60722 10.8863 6.11991 11.3259 6.77771C11.7654 7.4355 12 8.20886 12 8.99999C12 10.0609 11.5786 11.0783 10.8284 11.8284C10.0783 12.5786 9.06084 13 7.99998 13ZM6.66664 2.99999H9.33331C9.51012 2.99999 9.67969 2.92975 9.80472 2.80473C9.92974 2.6797 9.99998 2.51013 9.99998 2.33332C9.99998 2.15651 9.92974 1.98694 9.80472 1.86192C9.67969 1.73689 9.51012 1.66666 9.33331 1.66666H6.66664C6.48983 1.66666 6.32026 1.73689 6.19524 1.86192C6.07021 1.98694 5.99998 2.15651 5.99998 2.33332C5.99998 2.51013 6.07021 2.6797 6.19524 2.80473C6.32026 2.92975 6.48983 2.99999 6.66664 2.99999ZM8.66664 6.99999C8.66664 6.82318 8.59641 6.65361 8.47138 6.52858C8.34636 6.40356 8.17679 6.33332 7.99998 6.33332C7.82317 6.33332 7.6536 6.40356 7.52857 6.52858C7.40355 6.65361 7.33331 6.82318 7.33331 6.99999V8.25999C7.18236 8.39501 7.07596 8.57268 7.02819 8.76949C6.98042 8.9663 6.99354 9.17297 7.0658 9.36217C7.13807 9.55136 7.26608 9.71415 7.43289 9.829C7.5997 9.94385 7.79745 10.0053 7.99998 10.0053C8.2025 10.0053 8.40025 9.94385 8.56707 9.829C8.73388 9.71415 8.86188 9.55136 8.93415 9.36217C9.00641 9.17297 9.01953 8.9663 8.97176 8.76949C8.924 8.57268 8.8176 8.39501 8.66664 8.25999V6.99999Z" fill="currentColor"/>
</svg>
