<svg width="84" height="84" viewBox="0 0 84 84" fill="none" xmlns="http://www.w3.org/2000/svg">
<path d="M53.3333 28.625L35.4583 46.5417L28.5833 39.6667C28.2097 39.2305 27.7501 38.8763 27.2331 38.6262C26.7162 38.3761 26.1532 38.2355 25.5793 38.2134C25.0055 38.1912 24.4333 38.2879 23.8986 38.4974C23.3639 38.7069 22.8783 39.0246 22.4722 39.4307C22.0662 39.8367 21.7484 40.3223 21.5389 40.857C21.3295 41.3917 21.2328 41.9639 21.2549 42.5378C21.2771 43.1116 21.4176 43.6746 21.6677 44.1916C21.9178 44.7085 22.2721 45.1682 22.7083 45.5417L32.4999 55.375C32.8893 55.7612 33.351 56.0667 33.8587 56.2741C34.3663 56.4814 34.9099 56.5865 35.4583 56.5834C36.5514 56.5788 37.5989 56.1448 38.3749 55.375L59.2083 34.5417C59.5988 34.1544 59.9088 33.6935 60.1203 33.1858C60.3319 32.678 60.4408 32.1334 60.4408 31.5834C60.4408 31.0333 60.3319 30.4887 60.1203 29.981C59.9088 29.4732 59.5988 29.0124 59.2083 28.625C58.4276 27.849 57.3715 27.4134 56.2708 27.4134C55.17 27.4134 54.1139 27.849 53.3333 28.625ZM41.9999 0.333374C33.759 0.333374 25.7032 2.77708 18.8512 7.35547C11.9991 11.9339 6.65861 18.4413 3.50496 26.0549C0.351305 33.6685 -0.473833 42.0463 1.13388 50.1288C2.7416 58.2113 6.70997 65.6356 12.5372 71.4628C18.3643 77.29 25.7886 81.2584 33.8712 82.8661C41.9537 84.4738 50.3315 83.6487 57.9451 80.495C65.5587 77.3414 72.0661 72.0008 76.6445 65.1488C81.2229 58.2967 83.6666 50.2409 83.6666 42C83.6666 36.5283 82.5889 31.1101 80.4949 26.0549C78.401 20.9997 75.3318 16.4064 71.4627 12.5373C67.5936 8.66815 63.0003 5.59901 57.9451 3.50506C52.8898 1.41111 47.4717 0.333374 41.9999 0.333374ZM41.9999 75.3334C35.4072 75.3334 28.9626 73.3784 23.4809 69.7157C17.9993 66.053 13.7269 60.847 11.204 54.7562C8.68103 48.6653 8.02092 41.9631 9.3071 35.497C10.5933 29.031 13.768 23.0916 18.4297 18.4298C23.0915 13.7681 29.0309 10.5934 35.4969 9.3072C41.963 8.02102 48.6652 8.68114 54.7561 11.2041C60.8469 13.727 66.0529 17.9994 69.7156 23.481C73.3783 28.9627 75.3333 35.4073 75.3333 42C75.3333 50.8406 71.8214 59.3191 65.5702 65.5703C59.319 71.8215 50.8405 75.3334 41.9999 75.3334Z" fill="#606060"/>
</svg>
