<svg width="100" height="100" viewBox="0 0 100 100" fill="none" xmlns="http://www.w3.org/2000/svg">
<path d="M79.1667 16.6667H20.8334C17.5182 16.6667 14.3387 17.9836 11.9945 20.3278C9.65034 22.672 8.33337 25.8515 8.33337 29.1667V70.8333C8.33337 74.1485 9.65034 77.328 11.9945 79.6722C14.3387 82.0164 17.5182 83.3333 20.8334 83.3333H79.1667C82.4819 83.3333 85.6613 82.0164 88.0055 79.6722C90.3498 77.328 91.6667 74.1485 91.6667 70.8333V29.1667C91.6667 25.8515 90.3498 22.672 88.0055 20.3278C85.6613 17.9836 82.4819 16.6667 79.1667 16.6667ZM77.4584 25L52.9584 49.5C52.571 49.8905 52.1102 50.2005 51.6024 50.412C51.0947 50.6236 50.5501 50.7325 50 50.7325C49.45 50.7325 48.9054 50.6236 48.3976 50.412C47.8899 50.2005 47.4291 49.8905 47.0417 49.5L22.5417 25H77.4584ZM83.3334 70.8333C83.3334 71.9384 82.8944 72.9982 82.113 73.7796C81.3316 74.561 80.2718 75 79.1667 75H20.8334C19.7283 75 18.6685 74.561 17.8871 73.7796C17.1057 72.9982 16.6667 71.9384 16.6667 70.8333V30.875L41.1667 55.375C43.5105 57.7158 46.6875 59.0307 50 59.0307C53.3126 59.0307 56.4896 57.7158 58.8334 55.375L83.3334 30.875V70.8333Z" fill="#606060"/>
</svg>
