<svg width="100" height="100" viewBox="0 0 100 100" fill="none" xmlns="http://www.w3.org/2000/svg">
<path d="M67.875 36.2917C68.2624 36.6822 68.7232 36.9922 69.231 37.2037C69.7387 37.4153 70.2833 37.5242 70.8334 37.5242C71.3834 37.5242 71.928 37.4153 72.4358 37.2037C72.9435 36.9922 73.4044 36.6822 73.7917 36.2917L90.4584 19.625C91.243 18.8404 91.6838 17.7763 91.6838 16.6667C91.6838 15.5571 91.243 14.4929 90.4584 13.7083C89.6738 12.9237 88.6096 12.483 87.5 12.483C86.3904 12.483 85.3263 12.9237 84.5417 13.7083L70.8334 27.4583L65.4584 22.0417C65.0699 21.6532 64.6087 21.345 64.1011 21.1348C63.5935 20.9245 63.0495 20.8163 62.5 20.8163C61.3904 20.8163 60.3263 21.2571 59.5417 22.0417C59.1532 22.4302 58.845 22.8914 58.6348 23.399C58.4245 23.9066 58.3163 24.4506 58.3163 25C58.3163 26.1096 58.7571 27.1737 59.5417 27.9583L67.875 36.2917ZM87.5 33.3333C86.395 33.3333 85.3352 33.7723 84.5538 34.5537C83.7724 35.3351 83.3334 36.3949 83.3334 37.5V75C83.3334 76.1051 82.8944 77.1649 82.113 77.9463C81.3316 78.7277 80.2718 79.1667 79.1667 79.1667H20.8334C19.7283 79.1667 18.6685 78.7277 17.8871 77.9463C17.1057 77.1649 16.6667 76.1051 16.6667 75V35.0417L41.1667 59.5833C43.5052 61.9028 46.6647 63.2055 49.9584 63.2083C53.3349 63.191 56.5685 61.8436 58.9584 59.4583L66.125 52.2917C66.9096 51.5071 67.3504 50.4429 67.3504 49.3333C67.3504 48.2237 66.9096 47.1596 66.125 46.375C65.3404 45.5904 64.2763 45.1496 63.1667 45.1496C62.0571 45.1496 60.993 45.5904 60.2084 46.375L52.9167 53.6667C52.1378 54.4301 51.0907 54.8577 50 54.8577C48.9094 54.8577 47.8622 54.4301 47.0834 53.6667L22.5417 29.1667H45.8334C46.9384 29.1667 47.9982 28.7277 48.7797 27.9463C49.5611 27.1649 50 26.1051 50 25C50 23.8949 49.5611 22.8351 48.7797 22.0537C47.9982 21.2723 46.9384 20.8333 45.8334 20.8333H20.8334C17.5182 20.8333 14.3387 22.1503 11.9945 24.4945C9.65033 26.8387 8.33337 30.0181 8.33337 33.3333V75C8.33337 78.3152 9.65033 81.4946 11.9945 83.8388C14.3387 86.183 17.5182 87.5 20.8334 87.5H79.1667C82.4819 87.5 85.6613 86.183 88.0055 83.8388C90.3497 81.4946 91.6667 78.3152 91.6667 75V37.5C91.6667 36.3949 91.2277 35.3351 90.4463 34.5537C89.6649 33.7723 88.6051 33.3333 87.5 33.3333Z" fill="#606060"/>
</svg>
