<svg width="16" height="16" viewBox="0 0 16 16" fill="currentColor" xmlns="http://www.w3.org/2000/svg">
<path d="M7.99999 7.19998C8.2637 7.19998 8.52148 7.12178 8.74075 6.97527C8.96002 6.82876 9.13091 6.62052 9.23183 6.37689C9.33275 6.13325 9.35915 5.86516 9.3077 5.60652C9.25626 5.34788 9.12927 5.11031 8.9428 4.92384C8.75633 4.73737 8.51875 4.61038 8.26011 4.55893C8.00147 4.50748 7.73338 4.53389 7.48975 4.6348C7.24611 4.73572 7.03787 4.90662 6.89136 5.12588C6.74485 5.34515 6.66666 5.60294 6.66666 5.86664C6.66666 6.22027 6.80713 6.5594 7.05718 6.80945C7.30723 7.0595 7.64637 7.19998 7.99999 7.19998ZM7.52666 11.8066C7.58863 11.8691 7.66237 11.9187 7.74361 11.9526C7.82484 11.9864 7.91198 12.0038 7.99999 12.0038C8.088 12.0038 8.17513 11.9864 8.25637 11.9526C8.33761 11.9187 8.41135 11.8691 8.47332 11.8066L11.2 9.07331C11.8333 8.44034 12.2647 7.63377 12.4395 6.75562C12.6144 5.87746 12.5249 4.96718 12.1823 4.1399C11.8398 3.31263 11.2596 2.60552 10.5151 2.10802C9.77066 1.61051 8.89538 1.34497 7.99999 1.34497C7.1046 1.34497 6.22932 1.61051 5.48486 2.10802C4.7404 2.60552 4.16021 3.31263 3.81767 4.1399C3.47513 4.96718 3.38562 5.87746 3.56047 6.75562C3.73533 7.63377 4.16669 8.44034 4.79999 9.07331L7.52666 11.8066ZM4.81999 5.55998C4.86554 5.08466 5.01667 4.62551 5.26234 4.21605C5.50801 3.8066 5.84202 3.45718 6.23999 3.19331C6.76279 2.85004 7.37457 2.66715 7.99999 2.66715C8.62541 2.66715 9.23719 2.85004 9.75999 3.19331C10.1553 3.45628 10.4874 3.80358 10.7325 4.21023C10.9775 4.61689 11.1294 5.0728 11.1772 5.54517C11.225 6.01754 11.1676 6.49464 11.009 6.94215C10.8504 7.38966 10.5946 7.79647 10.26 8.13331L7.99999 10.3933L5.73999 8.13331C5.405 7.79973 5.14861 7.39566 4.98946 6.95051C4.83031 6.50536 4.77242 6.03032 4.81999 5.55998ZM12.6667 13.3333H3.33332C3.15651 13.3333 2.98694 13.4035 2.86192 13.5286C2.73689 13.6536 2.66666 13.8232 2.66666 14C2.66666 14.1768 2.73689 14.3464 2.86192 14.4714C2.98694 14.5964 3.15651 14.6666 3.33332 14.6666H12.6667C12.8435 14.6666 13.013 14.5964 13.1381 14.4714C13.2631 14.3464 13.3333 14.1768 13.3333 14C13.3333 13.8232 13.2631 13.6536 13.1381 13.5286C13.013 13.4035 12.8435 13.3333 12.6667 13.3333Z" fill="currentColor"/>
</svg>
